<svg version="1.1" id="Layer_1" xmlns="http://www.w3.org/2000/svg" xmlns:xlink="http://www.w3.org/1999/xlink" x="0px" y="0px"
	 width="100%" viewBox="0 0 1024 1024" enable-background="new 0 0 1024 1024" xml:space="preserve">
<path fill="#000000" opacity="1.000000" stroke="none" 
	d="
M630.750122,427.081909 
	C638.333557,425.465729 643.174622,428.171082 646.736694,434.614594 
	C655.526062,450.513580 661.564941,467.281342 664.441589,485.238434 
	C670.766235,524.719666 663.856323,561.622498 641.906311,595.097229 
	C615.914124,634.736755 579.227295,659.178345 532.099487,664.841492 
	C474.391968,671.775940 426.707581,651.545105 390.416626,605.970154 
	C365.914429,575.199829 355.254852,539.557678 357.919952,500.533173 
	C362.314209,436.189758 404.178772,384.559967 459.849426,365.184509 
	C506.848175,348.827209 552.231140,353.256866 594.777832,380.053558 
	C602.959961,385.206818 604.441650,392.380432 599.461182,400.556213 
	C594.994995,407.887756 586.258362,410.204315 578.708923,405.251770 
	C564.127319,395.685944 548.401855,389.086700 531.187439,386.622742 
	C493.879639,381.282806 460.253082,390.315826 431.647034,414.950348 
	C396.488953,445.227234 382.056274,484.191071 388.672058,529.879333 
	C393.385040,562.427002 409.664978,589.164551 435.739960,609.698242 
	C451.620300,622.203796 469.403961,630.769287 489.166016,634.382874 
	C525.885681,641.097107 559.254456,632.654114 588.727539,609.769958 
	C613.868652,590.249329 629.375488,564.279358 635.167786,533.309814 
	C640.510193,504.745270 636.546753,476.950989 622.177368,451.134949 
	C616.417419,440.786560 619.572876,431.718170 630.750122,427.081909 
z"/>
<path fill="#000000" opacity="1.000000" stroke="none" 
	d="
M586.920044,481.514709 
	C599.086975,486.854004 601.391174,497.225830 601.686584,508.496674 
	C602.805298,551.173584 572.221313,588.002319 534.009460,597.701660 
	C491.553558,608.478394 447.059723,586.483032 429.968323,546.243530 
	C407.273193,492.810760 438.935730,433.692352 496.018646,423.198639 
	C503.672150,421.791687 511.463959,420.996979 519.317200,422.669128 
	C528.254211,424.572052 534.286743,431.484253 534.340759,440.616394 
	C534.408813,452.106140 534.566528,463.600220 534.318115,475.084473 
	C534.220825,479.579254 535.896240,480.813904 540.145630,480.750427 
	C553.298096,480.553833 566.455505,480.679047 579.610962,480.688385 
	C581.936829,480.690063 584.284424,480.522339 586.920044,481.514709 
M566.158325,510.300385 
	C552.502075,510.311615 538.845825,510.346405 525.189636,510.327148 
	C512.541138,510.309296 505.664124,503.505737 505.634033,491.005035 
	C505.608398,480.346619 505.631500,469.688110 505.628784,459.029633 
	C505.627075,452.247101 504.473022,451.185486 498.042328,452.777832 
	C478.057098,457.726532 463.934967,469.862030 456.241577,488.802338 
	C446.276245,513.335999 454.736084,541.558838 476.286163,558.046997 
	C497.203918,574.051392 525.548157,574.480591 546.883972,558.830811 
	C560.691772,548.702759 568.921265,534.971741 571.406677,518.011902 
	C571.877441,514.799683 573.424988,510.069763 566.158325,510.300385 
z"/>
<path fill="#000000" opacity="1.000000" stroke="none" 
	d="
M510.074463,748.463013 
	C510.031677,742.528870 510.028259,737.038879 510.030823,731.548950 
	C510.032715,727.564880 508.662872,724.389832 504.176697,724.519714 
	C499.929169,724.642761 497.522797,727.358765 497.368561,731.643066 
	C497.207062,736.129822 497.302216,740.625671 497.277283,745.117554 
	C497.238007,752.203735 496.593079,752.666931 488.677673,750.721069 
	C488.677673,744.939819 488.717865,738.991211 488.663513,733.043396 
	C488.627441,729.099121 488.463562,725.000977 483.255524,724.448303 
	C478.983704,723.995056 476.247986,727.473694 476.122650,733.226257 
	C476.021179,737.882629 475.899658,742.549500 476.097900,747.198486 
	C476.298279,751.897339 473.079163,751.628235 470.098328,751.626099 
	C466.469849,751.623535 467.125092,748.980591 467.137115,746.618469 
	C467.174316,739.312134 467.008301,732.004456 467.087341,724.699036 
	C467.112701,722.351074 465.975922,719.122192 468.896820,718.046753 
	C471.397461,717.126099 474.545593,716.803589 476.106781,719.999634 
	C485.593964,715.090820 487.130676,715.199890 496.140991,721.297424 
	C499.428375,718.556396 503.001923,716.348816 507.694336,716.634705 
	C513.249268,716.973267 517.228943,719.994751 518.227966,725.421631 
	C519.624268,733.005920 518.940857,740.680176 518.894287,748.321777 
	C518.882874,750.193176 518.102478,751.621521 516.027039,751.700073 
	C513.618408,751.791260 510.802094,752.542664 510.074463,748.463013 
z"/>
<path fill="#000000" opacity="1.000000" stroke="none" 
	d="
M393.635376,714.525757 
	C384.735413,709.277405 376.922150,710.312988 371.527924,717.215576 
	C366.584503,723.541321 367.247864,733.544617 373.018311,739.691833 
	C376.886993,743.813110 384.959229,745.343384 390.145172,743.168396 
	C393.306549,741.842529 392.767273,739.289429 392.648712,736.850708 
	C392.519409,734.190674 390.455963,734.387695 388.616882,734.332642 
	C387.287476,734.292725 385.954895,734.292236 384.629730,734.193359 
	C382.683289,734.048218 382.214447,732.623779 382.190765,731.030762 
	C382.166168,729.378479 382.099792,727.584717 384.152985,726.921387 
	C384.771118,726.721680 385.466980,726.754333 386.128845,726.699524 
	C401.481995,725.428406 404.232330,728.460938 402.122345,744.103271 
	C401.842255,746.179565 400.725952,747.331787 399.134583,748.382263 
	C388.285095,755.544312 371.957947,753.326233 364.237488,743.610291 
	C356.262360,733.573669 357.457581,718.395935 366.956848,709.078308 
	C376.215057,699.997070 393.627625,700.634705 400.825653,710.510132 
	C399.017609,712.659180 397.830872,715.733215 393.635376,714.525757 
z"/>
<path fill="#000000" opacity="1.000000" stroke="none" 
	d="
M649.661255,734.968689 
	C650.093079,736.026489 650.390991,736.775024 650.938293,738.150146 
	C653.645752,733.148438 654.339661,728.074646 655.782104,723.270203 
	C657.610107,717.181213 658.271423,716.795593 665.097046,718.426575 
	C666.025879,720.490234 664.818237,722.293579 664.272644,724.143066 
	C661.922058,732.111267 659.419373,740.035217 657.134216,748.021667 
	C656.206299,751.264526 654.012024,751.869751 651.090881,751.921997 
	C648.015442,751.976929 646.670593,750.427734 645.906189,747.661865 
	C644.320007,741.922241 642.529785,736.239075 639.796814,730.484070 
	C638.044800,736.118652 636.185059,741.722900 634.587585,747.400940 
	C633.824158,750.114319 632.742554,751.989563 629.556396,751.736755 
	C626.697327,751.510010 624.184082,751.429993 623.197571,747.664612 
	C620.966675,739.150208 618.205566,730.775452 615.721252,722.325867 
	C615.359741,721.096313 614.754150,719.799561 615.484558,718.467163 
	C621.969727,716.787598 622.742004,717.173157 624.463318,723.003113 
	C625.956238,728.059509 627.434387,733.120300 629.302612,739.485840 
	C631.393799,732.778320 633.205811,727.333130 634.765869,721.816650 
	C635.620789,718.793823 637.194885,717.560486 640.441406,717.580444 
	C643.605713,717.599976 644.835083,719.035706 645.585938,721.790100 
	C646.765320,726.116577 648.200500,730.373230 649.661255,734.968689 
z"/>
<path fill="#000000" opacity="1.000000" stroke="none" 
	d="
M543.990967,703.631775 
	C547.481018,703.647278 550.476868,703.759705 553.464478,703.649292 
	C556.683167,703.530334 557.306946,705.319092 557.323547,708.049194 
	C557.341492,711.005615 555.863831,711.705017 553.245361,711.602295 
	C548.929504,711.432922 544.604736,711.503235 540.285156,711.407471 
	C537.367126,711.342834 536.217651,712.711792 535.998230,715.602966 
	C535.328064,724.433228 535.876953,725.038025 544.798157,724.349060 
	C546.947693,724.183044 549.112793,724.180359 551.271057,724.171692 
	C554.224731,724.159851 555.343079,725.730957 555.266113,728.607727 
	C555.191223,731.403259 553.831604,732.413635 551.193604,732.359680 
	C547.537903,732.284790 543.875305,732.448792 540.223633,732.306519 
	C537.217041,732.189453 535.996094,733.476746 536.053955,736.423218 
	C536.122437,739.911926 535.904541,743.406799 535.994141,746.894287 
	C536.082703,750.343323 534.556335,751.524475 531.156738,751.458191 
	C527.967773,751.395996 526.686890,750.253540 526.707764,747.047668 
	C526.792236,734.081604 526.810486,721.114075 526.699524,708.148376 
	C526.669250,704.614075 528.215576,703.468750 531.525330,703.595886 
	C535.509155,703.748840 539.503418,703.631165 543.990967,703.631775 
z"/>
<path fill="#000000" opacity="1.000000" stroke="none" 
	d="
M447.415405,730.669922 
	C449.260010,730.610596 450.565521,730.325012 450.551880,728.517273 
	C450.539612,726.898743 449.717316,725.649902 448.356049,724.828125 
	C444.933838,722.762146 441.492096,723.512817 438.530762,725.534790 
	C435.957916,727.291626 434.587830,727.125305 433.067902,724.378296 
	C431.519073,721.579102 432.492218,720.183350 435.009979,718.909058 
	C439.670410,716.550354 444.591827,716.062744 449.575928,717.014954 
	C455.208435,718.091003 458.818024,723.149658 459.315338,729.363708 
	C459.804932,735.481262 457.539124,741.956421 461.740570,747.658569 
	C462.460205,748.635315 461.990295,750.366516 460.895294,751.315186 
	C459.152435,752.825073 456.848328,752.720764 455.318329,751.533020 
	C452.185028,749.100647 449.741577,750.141052 446.519592,751.532776 
	C438.228241,755.114441 429.991547,750.210876 429.688263,742.003906 
	C429.498260,736.862488 431.817627,733.470154 436.647430,731.724792 
	C440.019226,730.506287 443.513458,730.648743 447.415405,730.669922 
M443.485474,745.656433 
	C447.416443,745.409851 450.731934,743.586731 450.331726,739.511353 
	C449.943481,735.557800 445.949951,737.205811 443.430664,737.106934 
	C440.970398,737.010376 438.760437,738.038452 438.388489,740.835205 
	C437.973877,743.952820 439.878235,745.299377 443.485474,745.656433 
z"/>
<path fill="#000000" opacity="1.000000" stroke="none" 
	d="
M613.061279,738.392700 
	C609.414673,748.533813 604.208557,752.455872 594.997192,752.345215 
	C587.190674,752.251404 581.178589,747.774414 578.692261,740.012817 
	C576.458313,733.038940 577.965149,726.681274 583.067261,721.607300 
	C588.220459,716.482300 594.703613,715.322144 601.567505,717.634277 
	C608.831238,720.081055 612.333374,725.641235 613.234375,732.996216 
	C613.434448,734.629578 613.191956,736.317139 613.061279,738.392700 
M598.416077,744.065491 
	C599.616699,743.201111 601.003052,742.507507 601.983398,741.440674 
	C605.045959,738.107910 605.455627,732.880798 602.886414,728.930237 
	C600.876343,725.839417 598.120728,723.751404 594.122803,724.495178 
	C590.041992,725.254395 586.793030,729.279846 586.409729,733.858521 
	C585.867371,740.337402 590.780945,744.888855 598.416077,744.065491 
z"/>
<path fill="#000000" opacity="1.000000" stroke="none" 
	d="
M572.177002,716.020081 
	C572.156738,726.513184 572.042725,736.511536 572.167603,746.507019 
	C572.211426,750.012634 571.047974,751.750427 567.382385,751.874756 
	C563.570984,752.004150 562.971252,749.814880 563.038269,746.773010 
	C563.349609,732.646790 562.450195,718.492554 563.629944,704.505554 
	C570.971191,702.480713 572.102966,703.261353 572.165894,710.025635 
	C572.182983,711.858398 572.174255,713.691345 572.177002,716.020081 
z"/>
<path fill="#000000" opacity="1.000000" stroke="none" 
	d="
M409.512573,740.587830 
	C409.531738,732.840149 409.531738,725.548218 409.531738,717.950989 
	C412.999969,718.051025 416.264130,716.027100 418.128906,720.032593 
	C419.737091,719.140564 420.979004,718.264954 422.353851,717.732727 
	C424.434357,716.927368 427.232605,715.333313 428.045380,718.775330 
	C428.636414,721.278137 429.867645,724.923462 424.895081,725.532166 
	C419.970917,726.134949 417.817596,729.238831 418.010162,734.245178 
	C418.182922,738.736511 417.966766,743.242371 417.946075,747.741882 
	C417.931000,751.019226 416.090210,752.027893 413.093689,751.923279 
	C410.157471,751.820679 408.823975,750.419312 409.019104,747.522705 
	C409.164642,745.362122 409.334412,743.203247 409.512573,740.587830 
z"/>
</svg>